<?xml version="1.0" encoding="utf-8"?>
<!-- Generator: Adobe Illustrator 26.0.1, SVG Export Plug-In . SVG Version: 6.00 Build 0)  -->
<svg version="1.1" id="Content" xmlns="http://www.w3.org/2000/svg" xmlns:xlink="http://www.w3.org/1999/xlink" x="0px" y="0px"
	 viewBox="0 0 2357.9 1577.2" style="enable-background:new 0 0 2357.9 1577.2;" xml:space="preserve">
<style type="text/css">
	.st0{fill:#E6007A;}
</style>
<path d="M201.9,1101.4c-36.6,0-71.9,4.6-86.3,8.5c-20.9,5.9-26.1,15-30.1,34l-83,383c-1.3,7.8-2.6,14.4-2.6,20.9
	c0,19,12.4,31.4,32.7,31.4c22.2,0,31.4-14.4,36-36.6l23.5-109.1c22.8,2.7,45.7,4,68.6,3.9c135.3,0,219.6-73.2,219.6-183.6
	C380.4,1157,313,1101.4,201.9,1101.4z M157.5,1374.6c-20.9,0-37.2-0.7-52.3-2.6l43.8-203.2c13.7-2,34-4.6,54.9-4.6
	c71.9,0,108.5,34,108.5,90.2C312.4,1326.2,260.1,1374.6,157.5,1374.6z"/>
<path d="M2331.1,1453c-11.1,0-18.3,6.5-32,21.6c-24.2,24.8-39.2,38.6-58.2,38.6c-17,0-26.1-13.7-26.1-36c0-12.4,2.6-27.4,5.9-43.8
	l24.2-113.7h72.5c22.9,0,36.6-13.1,36.6-36.6c0-13.1-8.5-22.9-28.1-22.9h-68l11.8-52.9c1.3-7.8,2.6-15,2.6-21.6
	c0-18.3-12.4-31.4-32.7-31.4c-21.6,0-31.4,14.4-35.9,36.6l-15,69.3h-30.7c-23.5,0-37.2,13.1-37.2,36.6c0,13.1,9.1,22.9,28.8,22.9
	h26.8L2152,1432c-3.7,17.6-5.7,35.6-5.9,53.6c0,52.9,27.4,91.5,86.3,91.5c34,0,64.1-17,86.9-37.2c22.2-19.6,38.6-43.8,38.6-59.5
	C2357.9,1465.4,2346.1,1453,2331.1,1453z"/>
<path d="M828,1140c0-19-13.1-31.4-33.3-31.4c-21.6,0-31.4,14.4-36,36.6L677,1524.9c-2,7.8-3.3,14.4-3.3,20.9
	c0,19,13.1,31.4,32.7,31.4c22.2,0,32-14.4,36.6-36.6l81.7-379.7C826,1153,828,1146.5,828,1140z"/>
<path d="M1994.6,1253.7c-104.6,0-175.8,103.9-175.8,202.6c0,1.8,0,3.7,0.1,5.5c-16.4,24.9-37.4,50.7-51.7,50.7
	c-10.4,0-14.4-9.8-14.4-24.8c0-18.3,5.2-49,11.1-75.8l54.2-251c1.3-7.8,2.6-14.4,2.6-20.9c0-19-12.4-31.4-32.7-31.4
	c-22.2,0-31.4,14.4-36,36.6l-29.4,135.9c-15.7-16.3-38.6-27.4-73.2-27.4c-69.4,0-139.3,53.5-166.5,135.4
	c-30,77.5-56.8,123.3-77.9,123.3c-7.8,0-12.4-6.5-12.4-17.6c0-32.7,18.3-112.4,26.1-151c2.6-14.4,3.9-20.2,3.9-28.8
	c0-28.8-47.7-62.7-109.8-62.7c-71.8,0-136.8,45.5-169.4,113c-48.4,85.6-92.9,147.1-114.8,147.1c-9.8,0-13.1-12.4-15.7-24.2
	l-16.4-90.1l100-81.7c9.2-7.8,20.9-19,20.9-33.3c0-17.7-11.8-29.4-29.4-29.4c-13.1,0-24.2,7.8-35.3,17l-150.3,124.2l50.3-234
	c1.3-7.8,3.3-14.4,3.3-20.9c0-19-13.1-31.4-33.3-31.4c-21.6,0-31.4,14.4-36,36.6L805,1524.9c-2,7.8-3.3,14.4-3.3,20.9
	c0,19,13.1,31.4,32.7,31.4c22.2,0,32-14.4,36.6-36.6l10.5-49l61.4-49.7l15,75.8c5.9,30.1,21.6,59.5,62.1,59.5
	c40.3,0,72-36.8,103.8-86.6c9.6,52.1,46.7,86.6,98.1,86.6c51.6,0,86.9-30.7,109.8-71.9v1.3c0,42.5,21.6,70.6,59.5,70.6
	c34.3,0,62.7-20.7,88.2-64.6c14.4,38.3,46.7,64.6,91.6,64.6c52.9,0,90.8-32,115-76.5v3.9c0,47,23.5,72.5,62.1,72.5
	c34,0,63-19.8,87.7-51.9c18.8,32.2,52.5,51.9,97.9,51.9c104.6,0,175.8-103.9,175.8-203.2C2109.6,1304,2067.1,1253.7,1994.6,1253.7z
	 M1343,1386.3c-19,81.7-59.5,128.1-105.2,128.1c-30.7,0-47.7-23.5-47.7-58.8c0-69.3,50.3-143.8,117.6-143.8
	c20.2,0,35.9,5.9,49.7,14.4L1343,1386.3z M1707,1351.7c-20.9,96.1-68.6,162.7-120.9,162.7c-28.8,0-45.8-22.2-45.8-58.8
	c0-69.9,48.4-142.5,113.1-142.5c24.8,0,43.8,8.5,57.5,19.6L1707,1351.7z M1941.6,1514.4c-37.9,0-53.6-27.4-53.6-62.1
	c0-63.4,43.8-135.9,98.7-135.9c37.9,0,53.6,27.4,53.6,62.1C2040.3,1442.6,1996.5,1514.4,1941.6,1514.4z"/>
<path d="M543.1,1253.7c-104.6,0-175.8,103.9-175.8,202.6c0,70.6,42.5,120.9,115,120.9c104.6,0,175.8-103.9,175.8-203.2
	C658.1,1304,615.6,1253.7,543.1,1253.7z M490.1,1514.4c-37.9,0-53.6-27.4-53.6-62.1c0-63.4,43.8-135.9,98.7-135.9
	c37.9,0,53.6,27.4,53.6,62.1C588.8,1442.6,545,1514.4,490.1,1514.4z"/>
<ellipse class="st0" cx="1178.9" cy="105.2" rx="180.8" ry="105.2"/>
<ellipse class="st0" cx="1178.9" cy="897.7" rx="180.8" ry="105.2"/>
<ellipse transform="matrix(0.5 -0.866 0.866 0.5 155.2057 875.4781)" class="st0" cx="835.8" cy="303.3" rx="180.8" ry="105.2"/>
<ellipse transform="matrix(0.5 -0.866 0.866 0.5 155.198 1667.9581)" class="st0" cx="1522.1" cy="699.6" rx="180.8" ry="105.2"/>
<ellipse transform="matrix(0.867 -0.4983 0.4983 0.867 -238.6814 512.0472)" class="st0" cx="840" cy="703.2" rx="105.6" ry="181.4"/>
<ellipse transform="matrix(0.866 -0.5 0.5 0.866 52.2563 801.6816)" class="st0" cx="1522.1" cy="303.3" rx="105.2" ry="180.8"/>
</svg>
